# Created with FME Version: FME(R) 2020.0.2.1 20200511 - Build 20238 - WIN64
# COORDINATE_SYSTEM:  
# Number of Geometry Coordinates  : 11
# Number of Texture  Coordinates  : 0
# Number of Normal   Coordinates  : 4
v 570279.000000 7027789.500000 87.242935
v 570276.750000 7027779.000000 91.202904
v 570284.375000 7027789.500000 90.029999
v 570288.062500 7027791.500000 91.172821
v 570284.062500 7027795.000000 87.229424
v 570272.750000 7027783.000000 87.259506
v 570280.687500 7027775.500000 87.259506
v 570292.000000 7027787.500000 87.229424
v 570278.750000 7027795.000000 90.029999
v 570281.250000 7027797.500000 87.229424
v 570276.187500 7027792.000000 87.242935
vn -0.430410 0.808566 -0.401209
vn 0.432558 0.808566 0.398892
vn 0.408023 0.799903 -0.440082
vn -0.406688 0.801741 0.437968
# Number of Elements in set       : 10
f 1//1 2//1 3//1 
f 3//1 2//1 4//1 
f 3//1 4//1 5//1 
f 1//1 6//1 2//1 
f 2//2 7//2 4//2 
f 4//2 7//2 8//2 
f 3//3 5//3 9//3 
f 9//3 5//3 10//3 
f 3//4 9//4 1//4 
f 1//4 9//4 11//4 
# Total Number of Elements in file: 10
# EOF
