# Created with FME Version: FME(R) 2020.0.2.1 20200511 - Build 20238 - WIN64
# COORDINATE_SYSTEM:  
# Number of Geometry Coordinates  : 12
# Number of Texture  Coordinates  : 0
# Number of Normal   Coordinates  : 4
v 566243.625000 7025921.000000 196.092865
v 566239.125000 7025925.500000 200.030701
v 566234.062500 7025911.500000 196.092865
v 566229.562500 7025916.000000 200.030701
v 566234.312500 7025929.500000 195.839996
v 566234.062500 7025925.000000 197.979996
v 566234.625000 7025930.000000 195.839996
v 566229.187500 7025924.500000 195.839996
v 566225.062500 7025920.500000 195.839996
v 566226.187500 7025932.500000 197.979996
v 566223.625000 7025930.000000 195.839996
v 566228.750000 7025935.500000 195.839996
vn 0.367921 0.851687 0.373181
vn -0.384444 0.836470 -0.390539
vn -0.363969 0.859627 0.358564
vn 0.364244 0.859627 -0.358285
# Number of Elements in set       : 11
f 1//1 2//1 3//1 
f 3//1 2//1 4//1 
f 5//2 6//2 7//2 
f 7//2 6//2 2//2 
f 2//2 6//2 4//2 
f 4//2 6//2 8//2 
f 4//2 8//2 9//2 
f 6//3 10//3 8//3 
f 8//3 10//3 11//3 
f 6//4 5//4 10//4 
f 10//4 5//4 12//4 
# Total Number of Elements in file: 11
# EOF
