# Created with FME Version: FME(R) 2020.0.2.1 20200511 - Build 20238 - WIN64
# COORDINATE_SYSTEM:  
# Number of Geometry Coordinates  : 6
# Number of Texture  Coordinates  : 0
# Number of Normal   Coordinates  : 2
v 571829.000000 7030644.500000 109.004173
v 571833.187500 7030649.000000 113.203545
v 571817.875000 7030654.500000 109.004173
v 571822.062500 7030659.000000 113.203545
v 571837.375000 7030653.500000 109.004173
v 571826.187500 7030663.500000 109.004173
vn -0.379708 0.826671 0.415256
vn 0.379389 0.826671 -0.415548
# Number of Elements in set       : 4
f 1//1 2//1 3//1 
f 3//1 2//1 4//1 
f 2//2 5//2 4//2 
f 4//2 5//2 6//2 
# Total Number of Elements in file: 4
# EOF
