# Created with FME Version: FME(R) 2020.0.2.1 20200511 - Build 20238 - WIN64
# COORDINATE_SYSTEM:  
# Number of Geometry Coordinates  : 16
# Number of Texture  Coordinates  : 0
# Number of Normal   Coordinates  : 7
v 570612.937500 7034165.500000 52.930000
v 570608.125000 7034172.000000 57.537270
v 570590.937500 7034149.000000 52.930000
v 570586.125000 7034156.000000 57.537270
v 570593.687500 7034171.500000 52.930000
v 570594.250000 7034165.500000 55.889999
v 570603.250000 7034178.500000 52.930000
v 570581.312500 7034162.500000 52.930000
v 570588.562500 7034167.500000 52.930000
v 570590.125000 7034171.000000 55.889999
v 570587.562500 7034169.000000 52.930000
v 570592.687500 7034173.000000 52.930000
v 570585.687500 7034145.500000 49.730000
v 570571.500000 7034164.620000 49.730000
v 570604.000000 7034188.620000 49.730000
v 570618.187500 7034169.500000 49.730000
vn 0.292285 0.870403 0.396192
vn -0.292589 0.870403 -0.395968
vn -0.546426 0.733573 0.404090
vn 0.546736 0.733573 -0.403671
vn -0.353848 0.897952 0.261676
vn -0.261541 0.897952 -0.353948
vn 0.354049 0.897952 -0.261405
# Number of Elements in set       : 19
f 1//1 2//1 3//1 
f 3//1 2//1 4//1 
f 5//2 6//2 7//2 
f 7//2 6//2 2//2 
f 2//2 6//2 4//2 
f 4//2 6//2 8//2 
f 8//2 6//2 9//2 
f 6//3 10//3 9//3 
f 9//3 10//3 11//3 
f 6//4 5//4 10//4 
f 10//4 5//4 12//4 
f 3//5 8//5 13//5 
f 13//5 8//5 14//5 
f 8//6 9//6 14//6 
f 14//6 9//6 5//6 
f 14//6 5//6 15//6 
f 15//6 5//6 7//6 
f 15//7 7//7 16//7 
f 16//7 7//7 1//7 
# Total Number of Elements in file: 19
# EOF
