# Created with FME Version: FME(R) 2020.0.2.1 20200511 - Build 20238 - WIN64
# COORDINATE_SYSTEM:  
# Number of Geometry Coordinates  : 16
# Number of Texture  Coordinates  : 0
# Number of Normal   Coordinates  : 6
v 572175.375000 7032468.500000 120.099998
v 572181.312500 7032466.000000 118.199997
v 572182.000000 7032471.500000 120.099998
v 572183.812500 7032467.500000 118.199997
v 572177.687500 7032474.500000 118.199997
v 572180.187500 7032475.500000 118.199997
v 572179.250000 7032459.500000 120.099998
v 572183.375000 7032461.500000 118.199997
v 572175.125000 7032469.000000 120.099998
v 572173.562500 7032473.000000 120.099998
v 572169.437500 7032471.000000 118.199997
v 572172.562500 7032464.000000 118.199997
v 572175.125000 7032458.000000 118.199997
v 572166.875000 7032465.500000 120.099998
v 572165.375000 7032469.500000 118.199997
v 572168.437500 7032462.000000 118.199997
vn 0.151538 0.923254 0.353041
vn -0.151267 0.923254 -0.353157
vn 0.358182 0.920879 -0.153907
vn -0.358300 0.920879 0.153632
vn -0.171649 0.899968 -0.400742
vn 0.171956 0.899968 0.400611
# Number of Elements in set       : 16
f 1//1 2//1 3//1 
f 3//1 2//1 4//1 
f 1//2 3//2 5//2 
f 5//2 3//2 6//2 
f 1//3 7//3 2//3 
f 2//3 7//3 8//3 
f 1//3 5//3 9//3 
f 9//3 5//3 10//3 
f 11//4 9//4 10//4 
f 9//4 12//4 1//4 
f 1//4 12//4 7//4 
f 7//4 12//4 13//4 
f 9//5 11//5 14//5 
f 14//5 11//5 15//5 
f 9//6 14//6 12//6 
f 12//6 14//6 16//6 
# Total Number of Elements in file: 16
# EOF
