# Created with FME Version: FME(R) 2020.0.2.1 20200511 - Build 20238 - WIN64
# COORDINATE_SYSTEM:  
# Number of Geometry Coordinates  : 6
# Number of Texture  Coordinates  : 0
# Number of Normal   Coordinates  : 4
v 570192.312500 7033608.500000 36.669998
v 570192.687500 7033615.000000 33.571331
v 570198.750000 7033607.500000 33.571331
v 570184.812500 7033602.000000 36.669998
v 570184.500000 7033595.500000 33.571331
v 570178.437500 7033602.500000 33.571331
vn -0.434231 -0.819702 0.373540
vn 0.361072 0.832241 0.420715
vn -0.361395 0.832241 -0.420438
vn -0.434231 0.819702 0.373541
# Number of Elements in set       : 6
f 1//1 2//1 3//1 
f 4//2 5//2 1//2 
f 1//2 5//2 3//2 
f 6//3 4//3 2//3 
f 2//3 4//3 1//3 
f 4//4 6//4 5//4 
# Total Number of Elements in file: 6
# EOF
