# Created with FME Version: FME(R) 2020.0.2.1 20200511 - Build 20238 - WIN64
# COORDINATE_SYSTEM:  
# Number of Geometry Coordinates  : 11
# Number of Texture  Coordinates  : 0
# Number of Normal   Coordinates  : 6
v 567730.375000 7032412.500000 165.679993
v 567731.937500 7032406.500000 163.110001
v 567724.250000 7032411.000000 163.110001
v 567734.875000 7032420.000000 165.679993
v 567728.812500 7032418.500000 163.110001
v 567734.687500 7032421.000000 165.970001
v 567735.125000 7032420.500000 165.679993
v 567741.500000 7032422.500000 163.110001
v 567718.437500 7032425.000000 163.110001
v 567725.125000 7032426.500000 165.970001
v 567723.437500 7032433.000000 163.110001
vn 0.254805 -0.865834 -0.430588
vn -0.427824 0.867746 -0.252948
vn -0.427824 -0.867747 -0.252948
vn -0.257173 0.862746 0.435351
vn -0.438666 0.860410 -0.259358
vn 0.257507 0.862746 -0.435154
# Number of Elements in set       : 14
f 1//1 2//1 3//1 
f 4//2 5//2 1//2 
f 1//2 5//2 3//2 
f 4//3 6//3 7//3 
f 7//3 6//3 8//3 
f 7//3 8//3 4//3 
f 4//3 8//3 2//3 
f 4//3 2//3 1//3 
f 9//4 5//4 10//4 
f 10//4 5//4 4//4 
f 10//4 4//4 6//4 
f 10//5 11//5 9//5 
f 8//6 11//6 6//6 
f 6//6 11//6 10//6 
# Total Number of Elements in file: 14
# EOF
