# Created with FME Version: FME(R) 2020.0.2.1 20200511 - Build 20238 - WIN64
# COORDINATE_SYSTEM:  
# Number of Geometry Coordinates  : 6
# Number of Texture  Coordinates  : 0
# Number of Normal   Coordinates  : 2
v 571180.312500 7033399.000000 121.629997
v 571183.500000 7033403.500000 124.339996
v 571166.687500 7033409.000000 121.629997
v 571169.937500 7033413.500000 124.339996
v 571186.687500 7033408.000000 121.629997
v 571173.125000 7033417.500000 121.629997
vn -0.256330 0.897275 0.359433
vn 0.256605 0.897275 -0.359237
# Number of Elements in set       : 4
f 1//1 2//1 3//1 
f 3//1 2//1 4//1 
f 2//2 5//2 4//2 
f 4//2 5//2 6//2 
# Total Number of Elements in file: 4
# EOF
