# Created with FME Version: FME(R) 2020.0.2.1 20200511 - Build 20238 - WIN64
# COORDINATE_SYSTEM:  
# Number of Geometry Coordinates  : 6
# Number of Texture  Coordinates  : 0
# Number of Normal   Coordinates  : 4
v 570998.875000 7033242.000000 121.389999
v 570991.625000 7033239.500000 124.830002
v 570994.000000 7033232.000000 121.389999
v 570986.375000 7033242.000000 124.830002
v 570984.000000 7033249.500000 121.389999
v 570979.125000 7033239.500000 121.389999
vn 0.483594 0.842721 0.236554
vn -0.483776 0.842721 -0.236183
vn 0.231523 0.849670 -0.473770
vn -0.231887 0.849670 0.473592
# Number of Elements in set       : 6
f 1//1 2//1 3//1 
f 4//2 5//2 6//2 
f 1//3 5//3 2//3 
f 2//3 5//3 4//3 
f 3//4 2//4 6//4 
f 6//4 2//4 4//4 
# Total Number of Elements in file: 6
# EOF
