# Created with FME Version: FME(R) 2020.0.2.1 20200511 - Build 20238 - WIN64
# COORDINATE_SYSTEM:  
# Number of Geometry Coordinates  : 14
# Number of Texture  Coordinates  : 0
# Number of Normal   Coordinates  : 4
v 570539.875000 7033719.500000 62.509998
v 570542.812500 7033712.000000 62.509998
v 570545.187500 7033721.500000 59.080002
v 570551.000000 7033707.000000 59.080002
v 570545.687500 7033705.000000 62.509998
v 570535.125000 7033709.000000 62.509998
v 570541.125000 7033708.000000 60.639999
v 570536.375000 7033706.000000 60.639999
v 570538.625000 7033714.000000 60.639999
v 570533.875000 7033712.500000 60.639999
v 570536.250000 7033713.500000 59.080002
v 570534.562500 7033717.500000 59.080002
v 570538.750000 7033707.000000 59.080002
v 570540.375000 7033703.000000 59.080002
vn 0.478485 0.857266 -0.190125
vn 0.178912 0.874527 0.450770
vn -0.178567 0.874527 -0.450907
vn -0.478630 0.857266 0.189758
# Number of Elements in set       : 13
f 1//1 2//1 3//1 
f 3//1 2//1 4//1 
f 4//1 2//1 5//1 
f 2//2 6//2 7//2 
f 7//2 6//2 8//2 
f 2//3 9//3 6//3 
f 6//3 9//3 10//3 
f 11//4 9//4 12//4 
f 12//4 9//4 1//4 
f 1//4 9//4 2//4 
f 13//4 14//4 7//4 
f 7//4 14//4 5//4 
f 7//4 5//4 2//4 
# Total Number of Elements in file: 13
# EOF
