# Created with FME Version: FME(R) 2020.0.2.1 20200511 - Build 20238 - WIN64
# COORDINATE_SYSTEM:  
# Number of Geometry Coordinates  : 6
# Number of Texture  Coordinates  : 0
# Number of Normal   Coordinates  : 4
v 569758.750000 7032453.660000 29.500000
v 569754.812500 7032448.500000 32.950001
v 569748.937500 7032451.160000 29.500000
v 569757.437500 7032438.000000 32.950001
v 569763.312500 7032435.000000 29.500000
v 569753.500000 7032433.000000 29.500000
vn 0.156936 -0.757596 0.633576
vn 0.546951 0.826239 -0.134811
vn -0.546848 0.826239 0.135231
vn 0.156936 0.757596 0.633576
# Number of Elements in set       : 6
f 1//1 2//1 3//1 
f 4//2 5//2 2//2 
f 2//2 5//2 1//2 
f 6//3 4//3 3//3 
f 3//3 4//3 2//3 
f 4//4 6//4 5//4 
# Total Number of Elements in file: 6
# EOF
