# Created with FME Version: FME(R) 2020.0.2.1 20200511 - Build 20238 - WIN64
# COORDINATE_SYSTEM:  
# Number of Geometry Coordinates  : 11
# Number of Texture  Coordinates  : 0
# Number of Normal   Coordinates  : 4
v 572340.187500 7032340.000000 123.139999
v 572336.312500 7032342.500000 127.820000
v 572333.750000 7032331.000000 123.139999
v 572329.937500 7032333.500000 127.820000
v 572332.500000 7032345.500000 123.139999
v 572332.562500 7032341.500000 125.389999
v 572328.937500 7032340.500000 123.139999
v 572326.062500 7032336.500000 123.139999
v 572325.812500 7032346.500000 125.389999
v 572327.625000 7032349.000000 123.139999
v 572324.062500 7032344.000000 123.139999
vn 0.572874 0.710759 0.408213
vn -0.573187 0.710759 -0.407773
vn 0.345221 0.803572 -0.484866
vn -0.344849 0.803572 0.485131
# Number of Elements in set       : 10
f 1//1 2//1 3//1 
f 3//1 2//1 4//1 
f 5//2 6//2 2//2 
f 2//2 6//2 4//2 
f 4//2 6//2 7//2 
f 4//2 7//2 8//2 
f 6//3 5//3 9//3 
f 9//3 5//3 10//3 
f 6//4 9//4 7//4 
f 7//4 9//4 11//4 
# Total Number of Elements in file: 10
# EOF
