# Created with FME Version: FME(R) 2020.0.2.1 20200511 - Build 20238 - WIN64
# COORDINATE_SYSTEM:  
# Number of Geometry Coordinates  : 12
# Number of Texture  Coordinates  : 0
# Number of Normal   Coordinates  : 4
v 568832.187500 7031745.500000 113.650002
v 568837.500000 7031737.500000 113.650002
v 568836.187500 7031748.000000 111.570000
v 568846.875000 7031732.000000 111.570000
v 568842.812500 7031729.500000 113.650002
v 568830.875000 7031738.500000 111.570000
v 568828.187500 7031742.500000 111.570000
v 568836.125000 7031730.500000 111.570000
v 568838.812500 7031726.500000 111.570000
v 568830.375000 7031732.500000 113.650002
v 568827.750000 7031736.500000 111.570000
v 568833.000000 7031728.500000 111.570000
vn 0.328640 0.918469 -0.220023
vn -0.328471 0.918469 0.220275
vn -0.223674 0.915717 -0.333816
vn 0.223930 0.915717 0.333644
# Number of Elements in set       : 11
f 1//1 2//1 3//1 
f 3//1 2//1 4//1 
f 4//1 2//1 5//1 
f 2//2 1//2 6//2 
f 6//2 1//2 7//2 
f 2//2 8//2 5//2 
f 5//2 8//2 9//2 
f 2//3 6//3 10//3 
f 10//3 6//3 11//3 
f 2//4 10//4 8//4 
f 8//4 10//4 12//4 
# Total Number of Elements in file: 11
# EOF
