# Created with FME Version: FME(R) 2020.0.2.1 20200511 - Build 20238 - WIN64
# COORDINATE_SYSTEM:  
# Number of Geometry Coordinates  : 6
# Number of Texture  Coordinates  : 0
# Number of Normal   Coordinates  : 2
v 569828.312500 7032118.000000 33.680000
v 569822.187500 7032118.000000 30.400000
v 569827.187500 7032091.500000 33.680000
v 569821.062500 7032092.000000 30.400000
v 569834.437500 7032117.500000 30.400000
v 569833.312500 7032091.500000 30.400000
vn -0.470391 0.882226 -0.020221
vn 0.470376 0.882226 0.020582
# Number of Elements in set       : 4
f 1//1 2//1 3//1 
f 3//1 2//1 4//1 
f 5//2 1//2 6//2 
f 6//2 1//2 3//2 
# Total Number of Elements in file: 4
# EOF
