# Created with FME Version: FME(R) 2020.0.2.1 20200511 - Build 20238 - WIN64
# COORDINATE_SYSTEM:  
# Number of Geometry Coordinates  : 12
# Number of Texture  Coordinates  : 0
# Number of Normal   Coordinates  : 4
v 566643.625000 7025556.000000 184.679993
v 566646.812500 7025553.000000 183.029999
v 566649.625000 7025562.500000 184.679993
v 566655.812500 7025563.000000 183.029999
v 566652.562500 7025566.000000 184.679993
v 566643.750000 7025562.500000 183.029999
v 566640.375000 7025558.500000 183.029999
v 566649.062500 7025568.500000 183.029999
v 566649.375000 7025569.000000 183.029999
v 566638.812500 7025572.000000 184.679993
v 566641.500000 7025575.000000 183.029999
v 566636.187500 7025569.000000 183.029999
vn 0.269642 0.933236 0.237409
vn -0.269460 0.933236 -0.237616
vn 0.250458 0.925595 -0.283804
vn -0.250241 0.925595 0.283996
# Number of Elements in set       : 11
f 1//1 2//1 3//1 
f 3//1 2//1 4//1 
f 3//1 4//1 5//1 
f 3//2 6//2 1//2 
f 1//2 6//2 7//2 
f 3//2 5//2 8//2 
f 8//2 5//2 9//2 
f 3//3 8//3 10//3 
f 10//3 8//3 11//3 
f 3//4 10//4 6//4 
f 6//4 10//4 12//4 
# Total Number of Elements in file: 11
# EOF
